# xmcd
#
# Track frame offsets: 
#        150
#        12974
#        25639
#        42444
#        62570
#        74858
#        93943
#        104695
#        125857
#        143472
#        155004
#
# Disc length: 2411 seconds
#
# Revision: 0
# Processed by: cddbd v1.4PL0 Copyright (c) Steve Scherf et al.
# Submitted via: ExactAudioCopy v0.90b4
#
DISCID=9a09690b
DTITLE=Sheri D Loughton - After the Ride
DYEAR=2001
DGENRE=Country
TTITLE0=Water's Wake
TTITLE1=I Can Always Dream
TTITLE2=Tears and Rain
TTITLE3=The Song of Me and Him
TTITLE4=The Feeling of You
TTITLE5=I Need You Like I Need the Mountainside
TTITLE6=Daisies and Roses
TTITLE7=Green Eyes
TTITLE8=Cowboy Rides Away
TTITLE9=You Gotta Jam
TTITLE10=After the Ride
EXTD=
EXTT0=
EXTT1=
EXTT2=
EXTT3=
EXTT4=
EXTT5=
EXTT6=
EXTT7=
EXTT8=
EXTT9=
EXTT10=
PLAYORDER=
